<svg width="327" height="262" viewBox="0 0 327 262" fill="none" xmlns="http://www.w3.org/2000/svg">
<mask id="path-1-inside-1" fill="white">
<path fill-rule="evenodd" clip-rule="evenodd" d="M32 0C20.9543 0 12 8.95431 12 20V24.9897L0 35L12 45.0103V242C12 253.046 20.9543 262 32 262H307C318.046 262 327 253.046 327 242V20C327 8.9543 318.046 0 307 0H32Z"/>
</mask>
<path d="M12 24.9897L13.2811 26.5255L14 25.9258V24.9897H12ZM0 35L-1.28115 33.4642L-3.1222 35L-1.28115 36.5358L0 35ZM12 45.0103H14V44.0742L13.2811 43.4745L12 45.0103ZM14 20C14 10.0589 22.0589 2 32 2V-2C19.8497 -2 10 7.84974 10 20H14ZM14 24.9897V20H10V24.9897H14ZM1.28115 36.5358L13.2811 26.5255L10.7189 23.4539L-1.28115 33.4642L1.28115 36.5358ZM13.2811 43.4745L1.28115 33.4642L-1.28115 36.5358L10.7189 46.5461L13.2811 43.4745ZM14 242V45.0103H10V242H14ZM32 260C22.0589 260 14 251.941 14 242H10C10 254.15 19.8497 264 32 264V260ZM307 260H32V264H307V260ZM325 242C325 251.941 316.941 260 307 260V264C319.15 264 329 254.15 329 242H325ZM325 20V242H329V20H325ZM307 2C316.941 2 325 10.0589 325 20H329C329 7.84973 319.15 -2 307 -2V2ZM32 2H307V-2H32V2Z" fill="#0033A0" mask="url(#path-1-inside-1)"/>
</svg>
