<svg width="263" height="158" viewBox="0 0 263 158" fill="none" xmlns="http://www.w3.org/2000/svg">
<mask id="path-1-inside-1" fill="white">
<path fill-rule="evenodd" clip-rule="evenodd" d="M31.9965 0C20.9508 0 11.9965 8.9543 11.9965 20V31.8454L0 44.5968L11.9965 57.3481V138C11.9965 149.046 20.9508 158 31.9965 158H243C254.046 158 263 149.046 263 138V20C263 8.95431 254.046 0 243 0H31.9965Z"/>
</mask>
<path d="M11.9965 31.8454L13.4532 33.2158L13.9965 32.6383V31.8454H11.9965ZM0 44.5968L-1.45667 43.2263L-2.74598 44.5968L-1.45667 45.9672L0 44.5968ZM11.9965 57.3481H13.9965V56.5552L13.4532 55.9777L11.9965 57.3481ZM13.9965 20C13.9965 10.0589 22.0554 2 31.9965 2V-2C19.8462 -2 9.99649 7.84973 9.99649 20H13.9965ZM13.9965 31.8454V20H9.99649V31.8454H13.9965ZM1.45667 45.9672L13.4532 33.2158L10.5398 30.475L-1.45667 43.2263L1.45667 45.9672ZM13.4532 55.9777L1.45667 43.2263L-1.45667 45.9672L10.5398 58.7186L13.4532 55.9777ZM13.9965 138V57.3481H9.99649V138H13.9965ZM31.9965 156C22.0554 156 13.9965 147.941 13.9965 138H9.99649C9.99649 150.15 19.8462 160 31.9965 160V156ZM243 156H31.9965V160H243V156ZM261 138C261 147.941 252.941 156 243 156V160C255.15 160 265 150.15 265 138H261ZM261 20V138H265V20H261ZM243 2C252.941 2 261 10.0589 261 20H265C265 7.84973 255.15 -2 243 -2V2ZM31.9965 2H243V-2H31.9965V2Z" fill="#0033A0" mask="url(#path-1-inside-1)"/>
</svg>
