<svg width="18" height="29" viewBox="0 0 18 29" fill="none" xmlns="http://www.w3.org/2000/svg">
<path d="M9 5.4C9.23869 5.4 9.46761 5.49482 9.6364 5.6636C9.80518 5.83239 9.9 6.06131 9.9 6.3V9.9C9.9 10.1387 9.80518 10.3676 9.6364 10.5364C9.46761 10.7052 9.23869 10.8 9 10.8C8.7613 10.8 8.53239 10.7052 8.3636 10.5364C8.19482 10.3676 8.1 10.1387 8.1 9.9V6.3C8.1 6.06131 8.19482 5.83239 8.3636 5.6636C8.53239 5.49482 8.7613 5.4 9 5.4ZM16.2 19.8C16.2 21.7096 15.4414 23.5409 14.0912 24.8912C12.7409 26.2414 10.9096 27 9 27C7.09044 27 5.25909 26.2414 3.90883 24.8912C2.55857 23.5409 1.8 21.7096 1.8 19.8V9C1.8 7.09044 2.55857 5.25909 3.90883 3.90883C5.25909 2.55857 7.09044 1.8 9 1.8C10.9096 1.8 12.7409 2.55857 14.0912 3.90883C15.4414 5.25909 16.2 7.09044 16.2 9V19.8ZM9 0C6.61305 0 4.32387 0.948211 2.63604 2.63604C0.948211 4.32387 0 6.61305 0 9V19.8C0 22.1869 0.948211 24.4761 2.63604 26.164C4.32387 27.8518 6.61305 28.8 9 28.8C11.3869 28.8 13.6761 27.8518 15.364 26.164C17.0518 24.4761 18 22.1869 18 19.8V9C18 6.61305 17.0518 4.32387 15.364 2.63604C13.6761 0.948211 11.3869 0 9 0V0Z" fill="#0033A0"/>
</svg>
