<svg width="20" height="32" viewBox="0 0 20 32" fill="none" xmlns="http://www.w3.org/2000/svg">
<path fill-rule="evenodd" clip-rule="evenodd" d="M9.99931 0C10.2939 0 10.5765 0.117039 10.7848 0.325369C10.9932 0.533699 11.1102 0.816255 11.1102 1.11088V27.3121L18.0998 20.3202C18.3084 20.1116 18.5913 19.9944 18.8863 19.9944C19.1813 19.9944 19.4643 20.1116 19.6728 20.3202C19.8814 20.5288 19.9986 20.8117 19.9986 21.1067C19.9986 21.4017 19.8814 21.6846 19.6728 21.8932L10.7858 30.7802C10.6826 30.8837 10.56 30.9658 10.4251 31.0218C10.2901 31.0778 10.1454 31.1066 9.99931 31.1066C9.85319 31.1066 9.70851 31.0778 9.57355 31.0218C9.43859 30.9658 9.316 30.8837 9.21281 30.7802L0.32578 21.8932C0.117186 21.6846 -6.95033e-09 21.4017 0 21.1067C6.95033e-09 20.8117 0.117186 20.5288 0.32578 20.3202C0.534373 20.1116 0.817286 19.9944 1.11228 19.9944C1.40728 19.9944 1.69019 20.1116 1.89878 20.3202L8.88843 27.3121V1.11088C8.88843 0.816255 9.00547 0.533699 9.2138 0.325369C9.42213 0.117039 9.70469 0 9.99931 0Z" fill="#418FDE"/>
</svg>
