<svg width="24" height="15" viewBox="0 0 24 15" fill="none" xmlns="http://www.w3.org/2000/svg">
<path fill-rule="evenodd" clip-rule="evenodd" d="M-3.27835e-07 7.5C-3.37495e-07 7.27902 0.0877847 7.06708 0.244043 6.91083C0.400301 6.75457 0.612233 6.66678 0.833216 6.66678L20.4855 6.66678L15.2412 1.42419C15.0847 1.26773 14.9968 1.05553 14.9968 0.834268C14.9968 0.613006 15.0847 0.400807 15.2412 0.244351C15.3977 0.0878947 15.6098 -6.82328e-07 15.8311 -6.92e-07C16.0524 -7.01672e-07 16.2646 0.0878947 16.421 0.244351L23.0868 6.91008C23.1644 6.98748 23.2259 7.07943 23.2679 7.18065C23.3099 7.28188 23.3315 7.3904 23.3315 7.5C23.3315 7.6096 23.3099 7.71812 23.2679 7.81934C23.2259 7.92057 23.1644 8.01252 23.0868 8.08992L16.421 14.7556C16.2646 14.9121 16.0524 15 15.8311 15C15.6098 15 15.3977 14.9121 15.2412 14.7556C15.0847 14.5992 14.9968 14.387 14.9968 14.1657C14.9968 13.9445 15.0847 13.7323 15.2412 13.5758L20.4855 8.33322L0.833216 8.33322C0.612233 8.33322 0.400301 8.24543 0.244043 8.08917C0.0877847 7.93291 -3.18176e-07 7.72098 -3.27835e-07 7.5Z" fill="white"/>
</svg>
