<svg width="501" height="219" viewBox="0 0 501 219" fill="none" xmlns="http://www.w3.org/2000/svg">
<mask id="path-1-inside-1" fill="white">
<path fill-rule="evenodd" clip-rule="evenodd" d="M46.3419 12.3033L38 0L29.6581 12.3033H20C8.9543 12.3033 0 21.2576 0 32.3033V199C0 210.046 8.9543 219 20 219H481C492.046 219 501 210.046 501 199V32.3033C501 21.2576 492.046 12.3033 481 12.3033H46.3419Z"/>
</mask>
<path d="M38 0L39.6554 -1.12238L38 -3.56386L36.3446 -1.12238L38 0ZM46.3419 12.3033L44.6865 13.4257L45.2816 14.3033H46.3419V12.3033ZM29.6581 12.3033V14.3033H30.7184L31.3135 13.4257L29.6581 12.3033ZM36.3446 1.12238L44.6865 13.4257L47.9973 11.1809L39.6554 -1.12238L36.3446 1.12238ZM31.3135 13.4257L39.6554 1.12238L36.3446 -1.12238L28.0027 11.1809L31.3135 13.4257ZM20 14.3033H29.6581V10.3033H20V14.3033ZM2 32.3033C2 22.3622 10.0589 14.3033 20 14.3033V10.3033C7.84974 10.3033 -2 20.153 -2 32.3033H2ZM2 199V32.3033H-2V199H2ZM20 217C10.0589 217 2 208.941 2 199H-2C-2 211.15 7.84973 221 20 221V217ZM481 217H20V221H481V217ZM499 199C499 208.941 490.941 217 481 217V221C493.15 221 503 211.15 503 199H499ZM499 32.3033V199H503V32.3033H499ZM481 14.3033C490.941 14.3033 499 22.3622 499 32.3033H503C503 20.1531 493.15 10.3033 481 10.3033V14.3033ZM46.3419 14.3033H481V10.3033H46.3419V14.3033Z" fill="#0033A0" mask="url(#path-1-inside-1)"/>
</svg>
