<svg width="21" height="26" viewBox="0 0 21 26" fill="none" xmlns="http://www.w3.org/2000/svg">
<path d="M9.80209 3.53752H4.37623L6.74093 1.38581C6.88554 1.23746 6.96837 1.03912 6.9725 0.831349C6.97663 0.623575 6.90175 0.42206 6.76316 0.268007C6.62457 0.113954 6.43275 0.0189989 6.22691 0.00255666C6.02107 -0.0138856 5.81676 0.049427 5.65576 0.179549L1.10452 4.35256L5.65576 8.42777C5.80428 8.56363 5.99764 8.63915 6.19835 8.63968C6.31136 8.63941 6.42305 8.61534 6.52626 8.56902C6.62947 8.5227 6.72191 8.45515 6.79762 8.37072C6.86994 8.29124 6.92588 8.19813 6.9622 8.09675C6.99852 7.99538 7.01451 7.88776 7.00924 7.78013C7.00397 7.6725 6.97754 7.56699 6.93149 7.4697C6.88543 7.37242 6.82067 7.28529 6.74093 7.21336L4.45721 5.1676H9.80209C11.4868 5.16796 13.1414 5.61733 14.5976 6.47003C16.0538 7.32272 17.2597 8.54833 18.0926 10.0222C18.9254 11.4961 19.3557 13.1657 19.3395 14.8611C19.3232 16.5566 18.8612 18.2176 18.0003 19.6751C17.1394 21.1325 15.9103 22.3346 14.4381 23.1589C12.9659 23.9833 11.303 24.4005 9.61857 24.3682C7.93414 24.336 6.28824 23.8553 4.84825 22.9752C3.40826 22.0951 2.22553 20.8469 1.42035 19.3575C1.29848 19.2167 1.13229 19.1224 0.949575 19.0901C0.766861 19.0579 0.578696 19.0898 0.416542 19.1805C0.254389 19.2712 0.128076 19.4151 0.0587256 19.5882C-0.0106248 19.7614 -0.0188093 19.9533 0.0355404 20.1318C0.977534 21.8762 2.36216 23.3382 4.04834 24.3687C5.73453 25.3992 7.662 25.9614 9.63439 25.9981C11.6068 26.0348 13.5536 25.5446 15.2764 24.5775C16.9993 23.6103 18.4366 22.2009 19.442 20.4926C20.4474 18.7844 20.9849 16.8385 20.9997 14.8531C21.0145 12.8678 20.5061 10.9139 19.5264 9.19069C18.5466 7.46745 17.1305 6.03639 15.4223 5.04333C13.7141 4.05026 11.7748 3.53068 9.80209 3.53752Z" fill="white"/>
</svg>
